# Blender v2.79 (sub 0) OBJ File: ''
# www.blender.org
mtllib cube_extruded.mtl
o Cube
v 1.000000 -1.000000 -1.000000
v 1.000000 -1.000000 1.000000
v -1.000000 -1.000000 1.000000
v -1.000000 -1.000000 -1.000000
v 1.000000 1.000000 -0.999999
v 0.999999 1.000000 1.000001
v -1.000000 1.000000 1.000000
v -1.000000 1.000000 -1.000000
v 1.000000 1.000000 -0.499999
v 1.000000 1.000000 0.000001
v 1.000000 1.000000 0.500001
v 0.500000 1.000000 -1.000000
v 0.000000 1.000000 -1.000000
v -0.500000 1.000000 -1.000000
v 0.499999 1.000000 1.000000
v -0.000001 1.000000 1.000000
v -0.500000 1.000000 1.000000
v -1.000000 1.000000 0.500000
v -1.000000 1.000000 -0.000000
v -1.000000 1.000000 -0.500000
v 0.500000 1.000000 -0.500000
v 0.500000 1.000000 0.000000
v 0.500000 1.000000 0.500000
v 0.000000 1.000000 -0.500000
v 0.500000 1.134674 -0.500000
v -0.000000 1.000000 0.500000
v -0.500000 1.000000 -0.500000
v -0.500000 1.000000 0.000000
v -0.500000 1.000000 0.500000
v 0.500000 1.000000 -0.500000
v 0.500000 1.000000 0.000000
v 0.500000 1.000000 0.500000
v 0.000000 1.000000 -0.500000
v -0.000000 1.000000 0.000000
v -0.000000 1.000000 0.500000
v -0.500000 1.000000 -0.500000
v -0.500000 1.000000 0.000000
v -0.500000 1.000000 0.500000
v 0.500000 1.134674 0.000000
v 0.000000 1.134674 -0.500000
v -0.000000 1.134674 0.000000
v -0.000000 1.134674 0.500000
v -0.500000 1.134674 0.000000
v -0.500000 1.134674 0.500000
v 0.500000 1.319132 0.000000
v 0.500000 1.319132 0.500000
v 0.000000 1.319132 -0.500000
v -0.000000 1.319132 0.000000
v -0.000000 1.319132 0.500000
v -0.500000 1.319132 -0.500000
v -0.500000 1.319132 0.000000
vn 0.0000 -1.0000 0.0000
vn 0.0000 1.0000 0.0000
vn 1.0000 0.0000 0.0000
vn -0.0000 -0.0000 1.0000
vn -1.0000 -0.0000 -0.0000
vn 0.0000 0.0000 -1.0000
usemtl Material
s off
f 1//1 2//1 3//1 4//1
f 29//2 18//2 7//2 17//2
f 1//3 5//3 9//3 10//3 11//3 6//3 2//3
f 2//4 6//4 15//4 16//4 17//4 7//4 3//4
f 3//5 7//5 18//5 19//5 20//5 8//5 4//5
f 5//6 1//6 4//6 8//6 14//6 13//6 12//6
f 11//2 23//2 15//2 6//2
f 23//2 26//2 16//2 15//2
f 26//2 29//2 17//2 16//2
f 5//2 12//2 21//2 9//2
f 9//2 21//2 22//2 10//2
f 10//2 22//2 23//2 11//2
f 12//2 13//2 24//2 21//2
f 22//4 21//4 30//4 31//4
f 21//4 24//4 33//4 30//4
f 13//2 14//2 27//2 24//2
f 26//4 23//4 32//4 35//4
f 27//4 28//4 37//4 36//4
f 14//2 8//2 20//2 27//2
f 27//2 20//2 19//2 28//2
f 28//2 19//2 18//2 29//2
f 30//6 33//6 40//6 25//6
f 35//4 32//4 46//4 49//4
f 37//4 34//4 48//4 51//4
f 34//6 37//6 43//6 41//6
f 28//4 29//4 38//4 37//4
f 29//4 26//4 35//4 38//4
f 24//4 27//4 36//4 33//4
f 23//4 22//4 31//4 32//4
f 25//2 40//2 41//2 39//2
f 41//2 43//2 44//2 42//2
f 33//5 34//5 41//5 40//5
f 38//4 35//4 42//4 44//4
f 31//3 30//3 25//3 39//3
f 34//4 31//4 39//4 41//4
f 37//5 38//5 44//5 43//5
f 35//3 34//3 41//3 42//3
f 45//2 48//2 49//2 46//2
f 47//2 50//2 51//2 48//2
f 36//5 37//5 51//5 50//5
f 34//3 33//3 47//3 48//3
f 33//6 36//6 50//6 47//6
f 31//6 34//6 48//6 45//6
f 34//5 35//5 49//5 48//5
f 32//3 31//3 45//3 46//3
