# Blender v2.79 (sub 0) OBJ File: ''
# www.blender.org
mtllib tiny_sphere.mtl
o Sphere
v 0.000000 0.809017 -0.587785
v 0.000000 0.309017 -0.951057
v 0.000000 -0.309017 -0.951056
v 0.000000 -0.809017 -0.587785
v 0.559017 0.809017 -0.181636
v 0.904509 0.309017 -0.293893
v 0.904509 -0.309017 -0.293893
v 0.559017 -0.809017 -0.181636
v 0.345492 0.809017 0.475528
v 0.559017 0.309017 0.769421
v 0.559017 -0.309017 0.769421
v 0.345491 -0.809017 0.475528
v 0.000000 -1.000000 0.000000
v -0.000000 1.000000 0.000000
v -0.345492 0.809017 0.475528
v -0.559017 0.309017 0.769421
v -0.559017 -0.309017 0.769421
v -0.345492 -0.809017 0.475528
v -0.559017 0.809017 -0.181636
v -0.904509 0.309017 -0.293893
v -0.904509 -0.309017 -0.293893
v -0.559017 -0.809017 -0.181636
vn 0.5878 -0.0000 -0.8090
vn 0.2191 0.9280 -0.3015
vn 0.5067 -0.5067 -0.6975
vn 0.5067 0.5067 -0.6975
vn 0.2191 -0.9280 -0.3015
vn 0.3544 -0.9280 0.1152
vn 0.9511 0.0000 0.3090
vn 0.3544 0.9280 0.1152
vn 0.8199 -0.5067 0.2664
vn 0.8199 0.5067 0.2664
vn -0.0000 -0.9280 0.3727
vn 0.0000 0.0000 1.0000
vn -0.0000 0.9280 0.3727
vn -0.0000 -0.5067 0.8621
vn 0.0000 0.5067 0.8621
vn -0.3544 -0.9280 0.1152
vn -0.9511 0.0000 0.3090
vn -0.3544 0.9280 0.1152
vn -0.8199 -0.5067 0.2664
vn -0.8199 0.5067 0.2664
vn -0.2191 -0.9280 -0.3015
vn -0.5878 -0.0000 -0.8090
vn -0.2191 0.9280 -0.3015
vn -0.5067 -0.5067 -0.6975
vn -0.5067 0.5067 -0.6975
usemtl None
s off
f 3//1 2//1 6//1 7//1
f 1//2 14//2 5//2
f 4//3 3//3 7//3 8//3
f 2//4 1//4 5//4 6//4
f 13//5 4//5 8//5
f 13//6 8//6 12//6
f 7//7 6//7 10//7 11//7
f 5//8 14//8 9//8
f 8//9 7//9 11//9 12//9
f 6//10 5//10 9//10 10//10
f 13//11 12//11 18//11
f 11//12 10//12 16//12 17//12
f 9//13 14//13 15//13
f 12//14 11//14 17//14 18//14
f 10//15 9//15 15//15 16//15
f 13//16 18//16 22//16
f 17//17 16//17 20//17 21//17
f 15//18 14//18 19//18
f 18//19 17//19 21//19 22//19
f 16//20 15//20 19//20 20//20
f 13//21 22//21 4//21
f 21//22 20//22 2//22 3//22
f 19//23 14//23 1//23
f 22//24 21//24 3//24 4//24
f 20//25 19//25 1//25 2//25
