# Blender v2.79 (sub 0) OBJ File: 'pyramid.blend'
# www.blender.org
mtllib pyramid.mtl
o Cube
v 1.000000 -1.000000 -1.014552
v 1.000000 -1.000000 0.985448
v -1.000000 -1.000000 0.985448
v -1.000000 -1.000000 -1.014552
v -0.000000 1.000000 -0.014552
v 1.000000 -1.000000 -0.728838
v 1.000000 -1.000000 -0.443123
v 1.000000 -1.000000 -0.157409
v 1.000000 -1.000000 0.128305
v 1.000000 -1.000000 0.414019
v 1.000000 -1.000000 0.699734
v 0.714286 -1.000000 -1.014552
v 0.428571 -1.000000 -1.014552
v 0.142857 -1.000000 -1.014552
v -0.142857 -1.000000 -1.014552
v -0.428571 -1.000000 -1.014552
v -0.714285 -1.000000 -1.014552
v 0.857143 -0.714286 -0.871695
v 0.714286 -0.428571 -0.728838
v 0.571428 -0.142857 -0.585980
v 0.428571 0.142857 -0.443123
v 0.285714 0.428571 -0.300266
v 0.142857 0.714286 -0.157409
v 0.714286 -1.000000 0.985448
v 0.428571 -1.000000 0.985448
v 0.142857 -1.000000 0.985448
v -0.142857 -1.000000 0.985448
v -0.428572 -1.000000 0.985448
v -0.714286 -1.000000 0.985448
v -1.000000 -1.000000 0.699733
v -1.000000 -1.000000 0.414019
v -1.000000 -1.000000 0.128305
v -1.000000 -1.000000 -0.157409
v -1.000000 -1.000000 -0.443124
v -1.000000 -1.000000 -0.728838
v 0.857143 -0.714286 0.842591
v 0.714286 -0.428571 0.699734
v 0.571428 -0.142857 0.556877
v 0.428571 0.142857 0.414019
v 0.285714 0.428571 0.271162
v 0.142857 0.714286 0.128305
v -0.857143 -0.714286 0.842591
v -0.714286 -0.428571 0.699734
v -0.571429 -0.142857 0.556876
v -0.428572 0.142857 0.414019
v -0.285714 0.428571 0.271162
v -0.142857 0.714286 0.128305
v -0.857143 -0.714286 -0.871695
v -0.714285 -0.428571 -0.728838
v -0.571428 -0.142857 -0.585981
v -0.428571 0.142857 -0.443124
v -0.285714 0.428571 -0.300266
v -0.142857 0.714286 -0.157409
v -0.571428 -0.714286 -0.871695
v -0.428571 -0.428571 -0.728838
v -0.285714 -0.714286 -0.871695
v -0.285714 -0.142857 -0.585981
v -0.142857 -0.428571 -0.728838
v 0.000000 -0.714286 -0.871695
v -0.142857 0.142857 -0.443123
v 0.000000 -0.142857 -0.585981
v 0.142857 -0.428571 -0.728838
v 0.285714 -0.714286 -0.871695
v -0.000000 0.428571 -0.300266
v 0.142857 0.142857 -0.443123
v 0.285714 -0.142857 -0.585981
v 0.428571 -0.428571 -0.728838
v 0.571429 -0.714286 -0.871695
v -0.857143 -0.714286 -0.585981
v -0.857143 -0.714286 -0.300267
v -0.714286 -0.428571 -0.443124
v -0.857143 -0.714286 -0.014552
v -0.714286 -0.428571 -0.157409
v -0.571428 -0.142857 -0.300266
v -0.857143 -0.714286 0.271162
v -0.714286 -0.428571 0.128305
v -0.571429 -0.142857 -0.014552
v -0.428571 0.142857 -0.157409
v -0.857143 -0.714286 0.556876
v -0.714286 -0.428571 0.414019
v -0.571429 -0.142857 0.271162
v -0.428571 0.142857 0.128305
v -0.285714 0.428571 -0.014552
v -0.571429 -0.714286 0.842591
v -0.285714 -0.714286 0.842591
v -0.428572 -0.428571 0.699734
v -0.000000 -0.714286 0.842591
v -0.142857 -0.428571 0.699734
v -0.285714 -0.142857 0.556876
v 0.285714 -0.714286 0.842591
v 0.142857 -0.428571 0.699734
v -0.000000 -0.142857 0.556877
v -0.142857 0.142857 0.414019
v 0.571429 -0.714286 0.842591
v 0.428571 -0.428571 0.699734
v 0.285714 -0.142857 0.556877
v 0.142857 0.142857 0.414019
v -0.000000 0.428571 0.271162
v 0.857143 -0.714286 0.556877
v 0.857143 -0.714286 0.271162
v 0.714286 -0.428571 0.414019
v 0.857143 -0.714286 -0.014552
v 0.714286 -0.428571 0.128305
v 0.571428 -0.142857 0.271162
v 0.857143 -0.714286 -0.300266
v 0.714286 -0.428571 -0.157409
v 0.571428 -0.142857 -0.014552
v 0.428571 0.142857 0.128305
v 0.857143 -0.714286 -0.585980
v 0.714286 -0.428571 -0.443123
v 0.571428 -0.142857 -0.300266
v 0.428571 0.142857 -0.157409
v 0.285714 0.428571 -0.014552
v 0.714286 -1.000000 -0.728838
v 0.428571 -1.000000 -0.728838
v 0.142857 -1.000000 -0.728838
v -0.142857 -1.000000 -0.728838
v -0.428571 -1.000000 -0.728838
v -0.714285 -1.000000 -0.728838
v 0.714286 -1.000000 -0.443123
v 0.428571 -1.000000 -0.443123
v 0.142857 -1.000000 -0.443124
v -0.142857 -1.000000 -0.443124
v -0.428571 -1.000000 -0.443124
v -0.714285 -1.000000 -0.443124
v 0.714286 -1.000000 -0.157409
v 0.428571 -1.000000 -0.157409
v 0.142857 -1.000000 -0.157409
v -0.142857 -1.000000 -0.157409
v -0.428571 -1.000000 -0.157409
v -0.714286 -1.000000 -0.157409
v 0.714286 -1.000000 0.128305
v 0.428571 -1.000000 0.128305
v 0.142857 -1.000000 0.128305
v -0.142857 -1.000000 0.128305
v -0.428571 -1.000000 0.128305
v -0.714286 -1.000000 0.128305
v 0.714286 -1.000000 0.414019
v 0.428571 -1.000000 0.414019
v 0.142857 -1.000000 0.414019
v -0.142857 -1.000000 0.414019
v -0.428571 -1.000000 0.414019
v -0.714286 -1.000000 0.414019
v 0.714286 -1.000000 0.699734
v 0.428571 -1.000000 0.699734
v 0.142857 -1.000000 0.699734
v -0.142857 -1.000000 0.699734
v -0.428571 -1.000000 0.699733
v -0.714286 -1.000000 0.699733
vn 0.0000 -1.0000 0.0000
vn 0.8944 0.4472 0.0000
vn 0.0000 0.4472 0.8944
vn -0.8944 0.4472 -0.0000
vn 0.0000 0.4472 -0.8944
usemtl Material
s off
f 149//1 29//1 3//1 30//1
f 1//2 18//2 6//2
f 2//3 36//3 24//3
f 3//4 42//4 30//4
f 5//5 23//5 53//5
f 48//5 17//5 4//5
f 49//5 54//5 48//5
f 50//5 55//5 49//5
f 51//5 57//5 50//5
f 52//5 60//5 51//5
f 53//5 64//5 52//5
f 48//5 54//5 17//5
f 54//5 16//5 17//5
f 49//5 55//5 54//5
f 55//5 56//5 54//5
f 54//5 56//5 16//5
f 56//5 15//5 16//5
f 50//5 57//5 55//5
f 57//5 58//5 55//5
f 55//5 58//5 56//5
f 58//5 59//5 56//5
f 56//5 59//5 15//5
f 59//5 14//5 15//5
f 51//5 60//5 57//5
f 60//5 61//5 57//5
f 57//5 61//5 58//5
f 61//5 62//5 58//5
f 58//5 62//5 59//5
f 62//5 63//5 59//5
f 59//5 63//5 14//5
f 63//5 13//5 14//5
f 52//5 64//5 60//5
f 64//5 65//5 60//5
f 60//5 65//5 61//5
f 65//5 66//5 61//5
f 61//5 66//5 62//5
f 66//5 67//5 62//5
f 62//5 67//5 63//5
f 67//5 68//5 63//5
f 63//5 68//5 13//5
f 68//5 12//5 13//5
f 53//5 23//5 64//5
f 23//5 22//5 64//5
f 64//5 22//5 65//5
f 22//5 21//5 65//5
f 65//5 21//5 66//5
f 21//5 20//5 66//5
f 66//5 20//5 67//5
f 20//5 19//5 67//5
f 67//5 19//5 68//5
f 19//5 18//5 68//5
f 68//5 18//5 12//5
f 18//5 1//5 12//5
f 35//4 48//4 4//4
f 34//4 69//4 35//4
f 33//4 70//4 34//4
f 32//4 72//4 33//4
f 31//4 75//4 32//4
f 30//4 79//4 31//4
f 35//4 69//4 48//4
f 69//4 49//4 48//4
f 34//4 70//4 69//4
f 70//4 71//4 69//4
f 69//4 71//4 49//4
f 71//4 50//4 49//4
f 33//4 72//4 70//4
f 72//4 73//4 70//4
f 70//4 73//4 71//4
f 73//4 74//4 71//4
f 71//4 74//4 50//4
f 74//4 51//4 50//4
f 32//4 75//4 72//4
f 75//4 76//4 72//4
f 72//4 76//4 73//4
f 76//4 77//4 73//4
f 73//4 77//4 74//4
f 77//4 78//4 74//4
f 74//4 78//4 51//4
f 78//4 52//4 51//4
f 31//4 79//4 75//4
f 79//4 80//4 75//4
f 75//4 80//4 76//4
f 80//4 81//4 76//4
f 76//4 81//4 77//4
f 81//4 82//4 77//4
f 77//4 82//4 78//4
f 82//4 83//4 78//4
f 78//4 83//4 52//4
f 83//4 53//4 52//4
f 30//4 42//4 79//4
f 42//4 43//4 79//4
f 79//4 43//4 80//4
f 43//4 44//4 80//4
f 80//4 44//4 81//4
f 44//4 45//4 81//4
f 81//4 45//4 82//4
f 45//4 46//4 82//4
f 82//4 46//4 83//4
f 46//4 47//4 83//4
f 83//4 47//4 53//4
f 47//4 5//4 53//4
f 29//3 42//3 3//3
f 28//3 84//3 29//3
f 27//3 85//3 28//3
f 26//3 87//3 27//3
f 25//3 90//3 26//3
f 24//3 94//3 25//3
f 29//3 84//3 42//3
f 84//3 43//3 42//3
f 28//3 85//3 84//3
f 85//3 86//3 84//3
f 84//3 86//3 43//3
f 86//3 44//3 43//3
f 27//3 87//3 85//3
f 87//3 88//3 85//3
f 85//3 88//3 86//3
f 88//3 89//3 86//3
f 86//3 89//3 44//3
f 89//3 45//3 44//3
f 26//3 90//3 87//3
f 90//3 91//3 87//3
f 87//3 91//3 88//3
f 91//3 92//3 88//3
f 88//3 92//3 89//3
f 92//3 93//3 89//3
f 89//3 93//3 45//3
f 93//3 46//3 45//3
f 25//3 94//3 90//3
f 94//3 95//3 90//3
f 90//3 95//3 91//3
f 95//3 96//3 91//3
f 91//3 96//3 92//3
f 96//3 97//3 92//3
f 92//3 97//3 93//3
f 97//3 98//3 93//3
f 93//3 98//3 46//3
f 98//3 47//3 46//3
f 24//3 36//3 94//3
f 36//3 37//3 94//3
f 94//3 37//3 95//3
f 37//3 38//3 95//3
f 95//3 38//3 96//3
f 38//3 39//3 96//3
f 96//3 39//3 97//3
f 39//3 40//3 97//3
f 97//3 40//3 98//3
f 40//3 41//3 98//3
f 98//3 41//3 47//3
f 41//3 5//3 47//3
f 11//2 36//2 2//2
f 10//2 99//2 11//2
f 9//2 100//2 10//2
f 8//2 102//2 9//2
f 7//2 105//2 8//2
f 6//2 109//2 7//2
f 11//2 99//2 36//2
f 99//2 37//2 36//2
f 10//2 100//2 99//2
f 100//2 101//2 99//2
f 99//2 101//2 37//2
f 101//2 38//2 37//2
f 9//2 102//2 100//2
f 102//2 103//2 100//2
f 100//2 103//2 101//2
f 103//2 104//2 101//2
f 101//2 104//2 38//2
f 104//2 39//2 38//2
f 8//2 105//2 102//2
f 105//2 106//2 102//2
f 102//2 106//2 103//2
f 106//2 107//2 103//2
f 103//2 107//2 104//2
f 107//2 108//2 104//2
f 104//2 108//2 39//2
f 108//2 40//2 39//2
f 7//2 109//2 105//2
f 109//2 110//2 105//2
f 105//2 110//2 106//2
f 110//2 111//2 106//2
f 106//2 111//2 107//2
f 111//2 112//2 107//2
f 107//2 112//2 108//2
f 112//2 113//2 108//2
f 108//2 113//2 40//2
f 113//2 41//2 40//2
f 6//2 18//2 109//2
f 18//2 19//2 109//2
f 109//2 19//2 110//2
f 19//2 20//2 110//2
f 110//2 20//2 111//2
f 20//2 21//2 111//2
f 111//2 21//2 112//2
f 21//2 22//2 112//2
f 112//2 22//2 113//2
f 22//2 23//2 113//2
f 113//2 23//2 41//2
f 23//2 5//2 41//2
f 17//1 119//1 35//1 4//1
f 119//1 125//1 34//1 35//1
f 125//1 131//1 33//1 34//1
f 131//1 137//1 32//1 33//1
f 137//1 143//1 31//1 32//1
f 143//1 149//1 30//1 31//1
f 1//1 6//1 114//1 12//1
f 12//1 114//1 115//1 13//1
f 13//1 115//1 116//1 14//1
f 14//1 116//1 117//1 15//1
f 15//1 117//1 118//1 16//1
f 16//1 118//1 119//1 17//1
f 6//1 7//1 120//1 114//1
f 114//1 120//1 121//1 115//1
f 115//1 121//1 122//1 116//1
f 116//1 122//1 123//1 117//1
f 117//1 123//1 124//1 118//1
f 118//1 124//1 125//1 119//1
f 7//1 8//1 126//1 120//1
f 120//1 126//1 127//1 121//1
f 121//1 127//1 128//1 122//1
f 122//1 128//1 129//1 123//1
f 123//1 129//1 130//1 124//1
f 124//1 130//1 131//1 125//1
f 8//1 9//1 132//1 126//1
f 126//1 132//1 133//1 127//1
f 127//1 133//1 134//1 128//1
f 128//1 134//1 135//1 129//1
f 129//1 135//1 136//1 130//1
f 130//1 136//1 137//1 131//1
f 9//1 10//1 138//1 132//1
f 132//1 138//1 139//1 133//1
f 133//1 139//1 140//1 134//1
f 134//1 140//1 141//1 135//1
f 135//1 141//1 142//1 136//1
f 136//1 142//1 143//1 137//1
f 10//1 11//1 144//1 138//1
f 138//1 144//1 145//1 139//1
f 139//1 145//1 146//1 140//1
f 140//1 146//1 147//1 141//1
f 141//1 147//1 148//1 142//1
f 142//1 148//1 149//1 143//1
f 11//1 2//1 24//1 144//1
f 144//1 24//1 25//1 145//1
f 145//1 25//1 26//1 146//1
f 146//1 26//1 27//1 147//1
f 147//1 27//1 28//1 148//1
f 148//1 28//1 29//1 149//1
